<svg width="512" height="512" viewBox="0 0 512 512" fill="none" xmlns="http://www.w3.org/2000/svg">
  <rect width="512" height="512" rx="112" fill="#06080D"/>
  <rect x="34" y="34" width="444" height="444" rx="96" fill="url(#bg)" stroke="rgba(255,255,255,0.14)" stroke-width="3"/>
  <path opacity="0.3" d="M119 352V160H178L256 269L334 160H393V352H328V265L274 340H238L184 265V352H119Z" fill="#0B1020"/>
  <path d="M104 362V138H174L256 254L338 138H408V362H335V254L276 339H236L177 254V362H104Z" fill="url(#mGrad)"/>
  <path d="M104 362V138H174L256 254L338 138H408V362H335V254L276 339H236L177 254V362H104Z" stroke="rgba(255,255,255,0.24)" stroke-width="4" stroke-linejoin="round"/>
  <rect x="126" y="388" width="260" height="18" rx="9" fill="rgba(255,255,255,0.12)"/>
  <defs>
    <radialGradient id="bg" cx="0" cy="0" r="1" gradientUnits="userSpaceOnUse" gradientTransform="translate(154 94) rotate(52) scale(472)">
      <stop stop-color="#202A52"/>
      <stop offset="0.48" stop-color="#101525"/>
      <stop offset="1" stop-color="#050609"/>
    </radialGradient>
    <linearGradient id="mGrad" x1="105" y1="136" x2="409" y2="364" gradientUnits="userSpaceOnUse">
      <stop stop-color="#B49BFF"/>
      <stop offset="0.5" stop-color="#86A8FF"/>
      <stop offset="1" stop-color="#5EA8FF"/>
    </linearGradient>
  </defs>
</svg>
